<svg xmlns="http://www.w3.org/2000/svg" shape-rendering="geometricPrecision" text-rendering="geometricPrecision" image-rendering="optimizeQuality" fill-rule="evenodd" clip-rule="evenodd" viewBox="0 0 444 511.66"><path fill-rule="nonzero" d="M0 103.01c0-29.4 8.87-54.02 26.72-73.61C44.45 9.8 66.5 0 92.98 0c26.59 0 48.76 9.92 66.26 29.63 17.61 19.71 26.36 44.8 26.36 75.13v24.61c0 28.93-8.75 53.31-26.13 72.91-17.5 19.6-39.43 29.4-65.79 29.4-26.72 0-49-9.68-66.85-29.05C8.99 183.15 0 158.07 0 127.27v-24.26zm18.78 26.48c0 23.8 6.77 43.86 20.3 59.84 13.65 16.1 31.73 24.15 54.6 24.15 21.81 0 39.54-7.93 52.96-23.8 13.41-15.86 20.18-36.51 20.18-61.94v-24.85c0-24.73-6.77-45.03-20.42-60.89-13.53-15.87-31.38-23.8-53.42-23.8-21.7 0-39.43 7.93-53.31 23.8-13.89 15.86-20.89 36.98-20.89 63.34v24.15zm239.61 253.02c0-29.39 8.75-53.89 26.49-73.37 17.61-19.48 39.66-29.17 66.14-29.17 26.6 0 48.76 9.69 66.5 29.17 17.61 19.48 26.48 44.8 26.48 75.71v24.26c0 29.4-8.87 53.9-26.48 73.38-17.74 19.48-39.67 29.17-65.8 29.17-26.48 0-48.65-9.69-66.49-29.05-17.97-19.37-26.84-44.45-26.84-75.13v-24.97zm18.79 26.72c0 24.5 6.76 44.68 20.3 60.54 13.64 15.75 31.61 23.69 54.24 23.69 22.28 0 40.13-7.94 53.43-23.92 13.3-15.87 20.07-36.63 20.07-62.06V382.4c0-25.9-6.77-46.43-20.07-61.48-13.3-15.16-31.38-22.75-54.13-22.75-22.63 0-40.48 7.7-53.89 23.22-13.3 15.51-19.95 36.28-19.95 62.41v25.43zm-171.95 50.63-15.29-10.62 243-389.05 15.28 10.62-242.99 389.05z"/></svg>